#!OML:ASF X:\für Bonn\!DataBase\2005_08_10_Bjorn_Final\c3d\bjorn.ASF
:FULLY-SPECIFIED
:DEGREES
77
root -21.7 18.1215 -24.7243 -355.725 357.277 -360.857
lowerback 5.08957 0.219528 -3.52359
upperback 12.9589 0.656703 -3.91181
thorax 11.047 0.216571 -2.23147
lowerneck -5.58669 3.39982 1.50046
upperneck -3.81603 4.50022 1.43261
head -0.254794 2.24521 0.250808
rclavicle -3.97569e-015 7.95139e-015
rhumerus -54.8254 15.0214 -103.97
rradius 53.9604
rwrist -31.7213
rhand -15.5733 14.2883
rfingers 7.12502
rthumb 10.6118 -15.4237
lclavicle -3.97569e-015 7.95139e-015
lhumerus -7.42157 -22.1883 85.3726
lradius 99.1731
lwrist -6.86445
lhand -42.2924 -19.1342
lfingers 7.12502
lthumb -15.1768 10.2893
rfemur -46.0077 -5.77261 14.7539
rtibia 63.4931
rfoot -18.423 14.1023
rtoes -25.9436
lfemur 11.7993 6.47832 -22.2428
ltibia 22.4847
lfoot -24.6956 -5.76879
ltoes -15.8613
78
root -21.6993 18.1494 -24.5656 -355.372 357.566 -361.168
lowerback 5.06494 0.0641604 -3.30477
upperback 12.794 0.421103 -3.69086
thorax 10.857 0.109104 -2.11793
lowerneck -5.66833 3.47825 1.61862
upperneck -3.59827 4.58848 1.21483
head -0.168343 2.28997 0.172315
rclavicle 5.56597e-015 2.38542e-014
rhumerus -55.5631 15.3107 -103.748
rradius 55.0909
rwrist -31.609
rhand -16.114 14.9009
rfingers 7.12502
rthumb 10.0902 -14.8372
lclavicle 5.56597e-015 2.38542e-014
lhumerus -7.78899 -22.3581 85.49
lradius 99.6185
lwrist -7.05889
lhand -42.6045 -19.0002
lfingers 7.12502
lthumb -15.4774 10.4002
rfemur -46.6315 -6.06292 15.1782
rtibia 62.8675
rfoot -17.7205 14.2584
rtoes -26.3761
lfemur 12.1314 6.23437 -21.8153
ltibia 21.9442
lfoot -23.7508 -6.31306
ltoes -15.4883
79
root -21.6988 18.1843 -24.3977 -355.048 357.857 -361.564
lowerback 5.04328 -0.0868237 -2.9833
upperback 12.6124 0.188668 -3.45446
thorax 10.6463 0.012178 -2.04462
lowerneck -5.61473 3.55615 1.77826
upperneck -3.47312 4.6787 0.964472
head -0.129268 2.33356 0.0740653
rclavicle -1.98785e-014 -3.02153e-014
rhumerus -56.2238 15.4876 -103.529
rradius 56.1102
rwrist -31.6011
rhand -16.6999 15.4136
rfingers 7.12502
rthumb 9.52487 -14.3511
lclavicle -1.98785e-014 -3.02153e-014
lhumerus -8.26544 -22.5612 85.5966
lradius 99.9637
lwrist -7.1736
lhand -42.7482 -18.692
lfingers 7.12502
lthumb -15.6158 10.6976
rfemur -47.1172 -6.33777 15.6932
rtibia 62.1466
rfoot -16.934 14.5304
rtoes -26.4649
lfemur 12.5288 5.99433 -21.2795
ltibia 21.3923
lfoot -22.6333 -6.8755
ltoes -15.2039
80
root -21.6976 18.2229 -24.2166 -354.798 358.115 -362.019
lowerback 4.99004 -0.223824 -2.56701
upperback 12.4749 -0.0218735 -3.21933
thorax 10.5066 -0.0653527 -2.02712
lowerneck -5.57072 3.63164 1.93783
upperneck -3.38868 4.76705 0.736661
head -0.100851 2.37595 -0.0177691
rclavicle 1.19271e-014 7.95139e-015
rhumerus -56.7667 15.6644 -103.3
rradius 57.0959
rwrist -31.6558
rhand -17.3365 15.7747
rfingers 7.12502
rthumb 8.91061 -14.0172
lclavicle 1.19271e-014 7.95139e-015
lhumerus -8.73964 -22.8045 85.6781
lradius 100.166
lwrist -7.20012
lhand -42.7145 -18.2617
lfingers 7.12502
lthumb -15.5834 11.1305
rfemur -47.3881 -6.5509 16.2704
rtibia 61.3112
rfoot -16.2005 14.8517
rtoes -26.5643
lfemur 13.0652 5.72237 -20.6949
ltibia 20.8005
lfoot -21.356 -7.33926
ltoes -14.9143
81
root -21.6969 18.2626 -24.0231 -354.57 358.36 -362.549
lowerback 4.86879 -0.352415 -2.06681
upperback 12.3486 -0.220894 -2.95638
thorax 10.42 -0.131399 -2.0281
lowerneck -5.51539 3.68672 2.00815
upperneck -3.29063 4.83412 0.561777
head -0.0732233 2.40885 -0.0801589
rclavicle 3.97569e-015 1.74931e-014
rhumerus -57.2382 15.7169 -102.99
rradius 58.0204
rwrist -31.645
rhand -17.9236 16.0394
rfingers 7.12502
rthumb 8.34406 -13.7758
lclavicle 3.97569e-015 1.74931e-014
lhumerus -9.28232 -23.0603 85.7851
lradius 100.168
lwrist -7.30049
lhand -42.739 -18.0107
lfingers 7.12502
lthumb -15.607 11.3796
rfemur -47.4987 -6.73691 16.925
rtibia 60.3718
rfoot -15.3927 15.3572
rtoes -26.1112
lfemur 13.7002 5.40581 -20.0391
ltibia 20.124
lfoot -19.8974 -7.73382
ltoes -14.5279
82
root -21.6968 18.3016 -23.822 -354.386 358.611 -363.149
lowerback 4.71717 -0.457708 -1.41695
upperback 12.2551 -0.386506 -2.73312
thorax 10.389 -0.164342 -2.15637
lowerneck -5.49113 3.72071 2.20847
upperneck -3.17773 4.86512 0.378835
head -0.0325817 2.42247 -0.165686
rclavicle 2.46493e-014 7.95139e-015
rhumerus -57.4832 15.6334 -102.715
rradius 58.8511
rwrist -31.7331
rhand -18.5234 16.1873
rfingers 7.12502
rthumb 7.76521 -13.6501
lclavicle 2.46493e-014 7.95139e-015
lhumerus -9.81987 -23.4477 85.784
lradius 100.042
lwrist -7.39865
lhand -42.729 -17.9938
lfingers 7.12502
lthumb -15.5974 11.3973
rfemur -47.4579 -6.91459 17.6639
rtibia 59.3476
rfoot -14.4857 15.9849
rtoes -25.4359
lfemur 14.4474 5.09138 -19.297
ltibia 19.3698
lfoot -18.3294 -8.04004
ltoes -14.294
83
root -21.697 18.3427 -23.6148 -354.218 358.864 -363.729
lowerback 4.55636 -0.572446 -0.816448
upperback 12.1495 -0.567222 -2.49139
thorax 10.3494 -0.211081 -2.23875
lowerneck -5.40717 3.76498 2.34422
upperneck -3.0735 4.91596 0.234111
head -0.00644859 2.44666 -0.230606
rclavicle 1.59028e-015 1.43125e-014
rhumerus -57.7165 15.5308 -102.406
rradius 59.6353
rwrist -31.8118
rhand -19.1592 16.2443
rfingers 7.12502
rthumb 7.1515 -13.6149
lclavicle 1.59028e-015 1.43125e-014
lhumerus -10.4286 -23.8131 85.8211
lradius 99.8291
lwrist -7.31088
lhand -42.5941 -18.1576
lfingers 7.12502
lthumb -15.4674 11.2436
rfemur -47.3194 -7.06995 18.3769
rtibia 58.2697
rfoot -13.5105 16.6548
rtoes -24.8985
lfemur 15.2185 4.78898 -18.5664
ltibia 18.6009
lfoot -16.7045 -8.22485
ltoes -14.5144
84
root -21.6964 18.3848 -23.4021 -353.985 359.132 -364.168
lowerback 4.26682 -0.694945 -0.35863
upperback 12.0471 -0.753756 -2.26618
thorax 10.3911 -0.27273 -2.26315
lowerneck -5.37913 3.80561 2.41182
upperneck -2.91144 4.96392 0.114521
head 0.0441189 2.47071 -0.275438
rclavicle 1.43125e-014 2.38542e-014
rhumerus -57.8696 15.4306 -102.045
rradius 60.383
rwrist -31.9244
rhand -19.7819 16.486
rfingers 7.12502
rthumb 6.55035 -13.3927
lclavicle 1.43125e-014 2.38542e-014
lhumerus -11.0539 -24.1851 85.896
lradius 99.5601
lwrist -7.14142
lhand -42.4193 -18.3618
lfingers 7.12502
lthumb -15.299 11.0524
rfemur -47.2113 -7.30363 18.9567
rtibia 57.1759
rfoot -12.5069 17.3647
rtoes -24.8316
lfemur 15.8931 4.41596 -18.0214
ltibia 17.8656
lfoot -15.0116 -8.28259
ltoes -14.9601
85
root -21.6962 18.424 -23.1848 -353.709 359.395 -364.507
lowerback 3.88079 -0.80653 0.0184702
upperback 11.9385 -0.922087 -2.08876
thorax 10.4847 -0.329494 -2.29619
lowerneck -5.36167 3.85092 2.50055
upperneck -2.71446 5.01687 0.0245775
head 0.107063 2.49746 -0.314094
rclavicle 4.77083e-015 -4.77083e-015
rhumerus -57.9207 15.2306 -101.675
rradius 61.1865
rwrist -31.8549
rhand -20.4837 16.6733
rfingers 7.12502
rthumb 5.87279 -13.2253
lclavicle 4.77083e-015 -4.77083e-015
lhumerus -11.6956 -24.6308 85.9358
lradius 99.217
lwrist -6.81666
lhand -42.271 -18.5673
lfingers 7.12502
lthumb -15.1562 10.8577
rfemur -47.1125 -7.53545 19.4356
rtibia 56.0793
rfoot -11.4508 18.0309
rtoes -24.7211
lfemur 16.439 4.04947 -17.5913
ltibia 17.2627
lfoot -13.2472 -8.26181
ltoes -15.5219
86
root -21.6956 18.464 -22.9621 -353.388 359.672 -364.726
lowerback 3.42397 -0.928188 0.263541
upperback 11.791 -1.10361 -1.91308
thorax 10.5772 -0.405086 -2.26023
lowerneck -5.29464 3.90332 2.52191
upperneck -2.4425 5.08391 -0.0588744
head 0.183367 2.53228 -0.339826
rclavicle 3.10104e-014 -4.77083e-015
rhumerus -57.9541 15.0687 -101.255
rradius 62.0538
rwrist -31.7152
rhand -21.1501 16.7033
rfingers 7.12502
rthumb 5.22942 -13.2122
lclavicle 3.10104e-014 -4.77083e-015
lhumerus -12.4802 -25.0876 86.0545
lradius 98.8563
lwrist -6.49646
lhand -42.1521 -18.5721
lfingers 7.12502
lthumb -15.0417 10.8614
rfemur -47.0224 -7.80226 19.788
rtibia 54.995
rfoot -10.3089 18.6172
rtoes -24.5176
lfemur 16.7912 3.64808 -17.3042
ltibia 16.8626
lfoot -11.4165 -8.13885
ltoes -15.9205
87
root -21.6942 18.5026 -22.737 -353.06 359.98 -364.92
lowerback 2.91988 -1.05987 0.510458
upperback 11.6474 -1.29953 -1.75945
thorax 10.7023 -0.48548 -2.25313
lowerneck -5.21548 3.96101 2.5567
upperneck -2.14116 5.15782 -0.119449
head 0.266732 2.57069 -0.360576
rclavicle 1.59028e-015 -2.22639e-014
rhumerus -57.8189 14.8898 -100.875
rradius 62.784
rwrist -31.5572
rhand -21.8619 16.7161
rfingers 7.12502
rthumb 4.54207 -13.2152
lclavicle 1.59028e-015 -2.22639e-014
lhumerus -13.295 -25.5892 86.1714
lradius 98.4177
lwrist -6.1182
lhand -42.1491 -18.4059
lfingers 7.12502
lthumb -15.0388 11.0279
rfemur -46.8971 -8.09217 20.1234
rtibia 53.9268
rfoot -9.17092 19.078
rtoes -24.3009
lfemur 16.9813 3.26908 -17.0232
ltibia 16.733
lfoot -9.63088 -7.95286
ltoes -17.1073
88
root -21.6929 18.5383 -22.5093 -352.814 360.293 -365.198
lowerback 2.49692 -1.20239 0.847811
upperback 11.4987 -1.51972 -1.57078
thorax 10.7713 -0.571942 -2.26017
lowerneck -5.0184 4.01203 2.54518
upperneck -1.91659 5.22976 -0.201803
head 0.306621 2.60753 -0.383759
rclavicle -4.77083e-015 1.74931e-014
rhumerus -57.687 14.752 -100.504
rradius 63.4929
rwrist -31.3367
rhand -22.6176 16.745
rfingers 7.12502
rthumb 3.81238 -13.2007
lclavicle -4.77083e-015 1.74931e-014
lhumerus -14.2324 -26.0858 86.3581
lradius 97.9427
lwrist -5.72278
lhand -42.2177 -18.1145
lfingers 7.12502
lthumb -15.1049 11.3144
rfemur -46.6216 -8.34836 20.5436
rtibia 52.9014
rfoot -8.15519 19.3265
rtoes -24.3756
lfemur 17.1226 2.90268 -16.6328
ltibia 16.8896
lfoot -7.88219 -7.76988
ltoes -18.171
89
root -21.6924 18.5709 -22.2794 -352.68 360.611 -365.553
lowerback 2.18401 -1.34506 1.23291
upperback 11.3737 -1.74783 -1.34335
thorax 10.8009 -0.660605 -2.25189
lowerneck -4.82144 4.06485 2.56715
upperneck -1.6905 5.30251 -0.340185
head 0.349783 2.64413 -0.429438
rclavicle -7.15625e-015 9.54166e-015
rhumerus -57.4792 14.6702 -100.13
rradius 64.148
rwrist -31.1456
rhand -23.4081 16.7559
rfingers 7.12502
rthumb 3.04895 -13.2021
lclavicle -7.15625e-015 9.54166e-015
lhumerus -15.2249 -26.5818 86.5853
lradius 97.4152
lwrist -5.21208
lhand -42.1936 -17.9468
lfingers 7.12502
lthumb -15.0817 11.4838
rfemur -46.1376 -8.53638 21.0128
rtibia 51.9389
rfoot -7.32242 19.4179
rtoes -24.6399
lfemur 17.2238 2.51574 -16.1533
ltibia 17.3768
lfoot -6.13597 -7.62754
ltoes -19.3281
